<svg width="131" height="150" viewBox="0 0 131 150" fill="none" xmlns="http://www.w3.org/2000/svg">
<path d="M64.186 0.327623C64.9465 -0.109208 65.8841 -0.109208 66.6448 0.327623L129.604 36.4848C130.363 36.9209 130.83 37.7261 130.83 38.5972V110.917C130.83 111.789 130.363 112.594 129.604 113.03L66.6448 149.187C65.8841 149.624 64.9465 149.624 64.186 149.187L1.22696 113.03C0.467646 112.594 0 111.789 0 110.917V38.5972C0 37.7261 0.467646 36.9209 1.22696 36.4848L64.186 0.327623Z" fill="url(#paint0_linear_2275_2062)"/>
<path d="M91.3624 46.8092L114.762 60.2735L91.3631 73.7379L67.9639 60.2735L91.3624 46.8092Z" fill="#F8F8F8"/>
<path d="M91.3628 73.7369V100.666L67.9639 87.202V60.2733L91.3628 73.7369Z" fill="#FDF4F5"/>
<path d="M91.3604 73.7372V100.666L114.759 87.2022V60.2736L91.3604 73.7372Z" fill="#FFCDC7"/>
<path d="M39.462 46.8092L62.8614 60.2735L39.4627 73.7379L16.0635 60.2735L39.462 46.8092Z" fill="#F8F8F8"/>
<path d="M39.4625 73.7369V100.666L16.0635 87.202V60.2733L39.4625 73.7369Z" fill="#FDF4F5"/>
<path d="M39.4609 73.7372V100.666L62.8599 87.2022V60.2736L39.4609 73.7372Z" fill="#FFCDC7"/>
<defs>
<linearGradient id="paint0_linear_2275_2062" x1="65.4154" y1="-0.37845" x2="65.4154" y2="149.893" gradientUnits="userSpaceOnUse">
<stop stop-color="#EA4A35"/>
<stop offset="1" stop-color="#F39387"/>
</linearGradient>
</defs>
</svg>
